<?xml version="1.0" encoding="utf-8" ?>
<svg xmlns="http://www.w3.org/2000/svg" xmlns:xlink="http://www.w3.org/1999/xlink" width="1041" height="1041">
	<path fill="#102130" transform="scale(1.01668 1.01668)" d="M0 0L1024 0L1024 1024L0 1024L0 0Z"/>
	<path fill="#80F0D2" transform="scale(1.01668 1.01668)" d="M191.993 583.747C201.202 575.132 210.953 566.985 220.401 558.624C228.003 551.896 235.378 544.822 243.135 538.284C245.185 536.555 247.252 534.336 250.042 534.555C251.208 535.437 251.476 535.642 252.069 536.962C251.953 538.216 251.711 539.062 251.01 540.095C247.722 544.935 234.217 556.214 229.337 560.843L229.329 570.716C228.278 575.508 228.841 581.056 228.839 585.972L228.836 615.592C228.835 621.044 229.198 626.808 228.623 632.216C226.774 632.928 224.02 632.116 222.067 631.921C221.279 610.318 222.14 588.46 222.036 566.82C213.274 574.636 204.104 581.964 195.594 590.061C197.732 597.725 197.961 606.55 193.849 613.613C189.829 620.517 183.25 624.048 175.826 626.034C175.94 632.38 176.806 655.858 175.297 660.229C174.762 661.777 174.076 662.371 172.621 663.024C171.262 662.891 170.08 662.443 169.091 661.467C167.206 659.606 168.215 631.28 168.243 626.377C162.215 625.745 156.538 623.647 152.022 619.496C146.789 614.687 143.761 607.165 143.687 600.081C143.615 593.216 146.75 586.056 151.554 581.187C156.655 576.016 163.855 572.854 171.154 573.004C179.815 573.182 186.305 577.706 191.993 583.747Z"/>
	<path fill="#102130" transform="scale(1.01668 1.01668)" d="M169.494 581.617C172.851 581.64 176.045 582.305 178.987 583.98Q179.403 584.216 179.807 584.474Q180.21 584.731 180.6 585.009Q180.989 585.287 181.364 585.584Q181.739 585.882 182.098 586.198Q182.457 586.515 182.8 586.849Q183.142 587.183 183.467 587.535Q183.792 587.887 184.098 588.254Q184.404 588.622 184.691 589.005Q184.978 589.388 185.245 589.785Q185.512 590.182 185.758 590.593Q186.005 591.003 186.229 591.426Q186.454 591.848 186.657 592.282Q186.86 592.715 187.04 593.159Q187.22 593.602 187.377 594.054Q187.534 594.506 187.668 594.966Q187.802 595.425 187.912 595.891C189.021 600.606 188.186 605.782 185.429 609.792C182.349 614.272 177.99 616.026 172.875 617.034C168.639 617.147 164.781 616.793 161.035 614.628C156.907 612.244 154.122 608.138 153.093 603.514Q152.995 603.088 152.92 602.657Q152.844 602.227 152.79 601.793Q152.737 601.359 152.706 600.923Q152.675 600.487 152.666 600.049Q152.657 599.612 152.671 599.175Q152.684 598.738 152.72 598.303Q152.756 597.867 152.815 597.434Q152.873 597 152.953 596.571Q153.034 596.141 153.136 595.716Q153.238 595.291 153.363 594.872Q153.487 594.452 153.632 594.04Q153.777 593.628 153.944 593.223Q154.11 592.819 154.297 592.424Q154.484 592.029 154.69 591.643Q154.897 591.258 155.123 590.884Q155.35 590.51 155.595 590.148C158.878 585.261 163.858 582.741 169.494 581.617Z"/>
	<path fill="#FEFEFE" transform="scale(1.01668 1.01668)" d="M548.494 411.821L572.515 411.85L572.506 524.492L628.579 524.363C627.267 530.334 625.316 535.344 621.653 540.271C618.113 543.581 614.167 545.695 609.423 546.764C601.636 548.519 592.522 547.688 584.54 547.676L548.428 547.598C547.859 502.367 548.444 457.059 548.494 411.821Z"/>
	<path fill="#52B1E9" transform="scale(1.01668 1.01668)" d="M252.953 361.596C255.431 353.178 259.577 346.076 267.659 341.839C273.732 338.656 280.817 337.8 287.398 339.863C293.984 341.927 299.856 347.028 303.003 353.144C306.317 359.586 306.823 367.687 304.463 374.539Q304.25 375.16 304.006 375.769Q303.761 376.378 303.487 376.974Q303.213 377.57 302.909 378.152Q302.605 378.734 302.272 379.299Q301.939 379.865 301.578 380.413Q301.217 380.961 300.83 381.491Q300.442 382.02 300.028 382.529Q299.614 383.039 299.175 383.526Q298.736 384.014 298.273 384.48Q297.81 384.945 297.325 385.386Q296.839 385.828 296.332 386.244Q295.825 386.66 295.297 387.051Q294.77 387.441 294.223 387.805Q293.677 388.168 293.113 388.504Q292.549 388.84 291.969 389.147Q291.389 389.454 290.794 389.731Q290.172 390.017 289.536 390.272Q288.901 390.527 288.253 390.75Q287.606 390.974 286.948 391.164Q286.29 391.355 285.624 391.513Q284.958 391.671 284.284 391.795Q283.611 391.92 282.932 392.011Q282.254 392.102 281.571 392.16Q280.889 392.217 280.204 392.24Q279.52 392.263 278.835 392.253Q278.15 392.242 277.467 392.198Q276.784 392.153 276.103 392.075Q275.423 391.996 274.747 391.884Q274.072 391.772 273.403 391.627Q272.733 391.481 272.072 391.303Q271.411 391.124 270.76 390.913Q270.108 390.702 269.468 390.459C266.233 389.215 263.4 387.38 260.643 385.305C255.995 389.932 251.244 395.361 246.019 399.304C247.073 395.681 256.837 387.316 260.067 384.679C261.279 384.51 261.618 384.973 262.573 385.609C263.591 386.287 264.262 386.783 265.516 386.955C265.823 386.996 266.131 387.026 266.438 387.062L266.904 387.747C268.038 386.016 268.906 384.907 270.733 383.878C270.881 383.794 271.033 383.717 271.182 383.637L271.212 382.925C267.144 380.525 264.463 376.609 261.309 373.181C261.171 373.28 261.028 373.371 260.897 373.477C259.55 374.56 258.644 374.939 256.961 375.422L256.376 375.584C256.434 375.865 256.475 376.15 256.55 376.427C256.818 377.413 257.258 378.176 257.055 379.235C256.422 382.537 245.072 392.43 242.026 393.953C241.849 394.041 241.669 394.121 241.491 394.205Q249.053 386.663 256.757 379.265C254.986 376.356 254.186 373.314 253.247 370.08Q224.786 370.275 196.325 370.085C194.679 377.313 191.014 383.475 184.619 387.553C178.411 391.512 170.81 392.518 163.707 390.754Q163.086 390.599 162.474 390.414Q161.861 390.229 161.259 390.014Q160.656 389.799 160.065 389.555Q159.473 389.31 158.895 389.037Q158.316 388.763 157.752 388.462Q157.188 388.16 156.639 387.831Q156.09 387.502 155.558 387.146Q155.027 386.791 154.513 386.409Q153.999 386.028 153.505 385.621Q153.011 385.215 152.537 384.785Q152.064 384.354 151.612 383.901Q151.16 383.448 150.731 382.973Q150.302 382.499 149.897 382.003Q149.492 381.508 149.112 380.993Q148.732 380.478 148.378 379.946Q148.024 379.413 147.696 378.863C144.067 372.69 143.272 364.521 145.247 357.638C147.26 350.624 152.493 345.022 158.848 341.647C165.011 338.374 171.712 337.845 178.35 339.99C185.414 342.271 190.999 347.407 194.155 354.076C195.259 356.408 195.978 358.935 196.507 361.453Q224.729 361.761 252.953 361.596Z"/>
	<path fill="#102130" transform="scale(1.01668 1.01668)" d="M167.822 347.565C171.305 347.329 174.212 347.545 177.47 348.922Q178.247 349.244 178.988 349.642Q179.729 350.04 180.427 350.51Q181.125 350.979 181.772 351.517Q182.419 352.054 183.01 352.653Q183.6 353.252 184.128 353.907Q184.656 354.561 185.116 355.266Q185.576 355.97 185.963 356.717Q186.35 357.463 186.661 358.245Q186.989 359.073 187.234 359.93Q187.478 360.787 187.637 361.664Q187.796 362.54 187.867 363.428Q187.938 364.316 187.922 365.207Q187.905 366.098 187.8 366.983Q187.695 367.868 187.504 368.738Q187.312 369.608 187.035 370.455Q186.758 371.302 186.399 372.117C183.816 377.988 179.188 380.967 173.487 383.25C169.801 383.607 166.095 383.075 162.709 381.53Q161.976 381.198 161.28 380.795Q160.584 380.391 159.931 379.92Q159.279 379.45 158.677 378.916Q158.075 378.382 157.529 377.792Q156.983 377.201 156.498 376.558Q156.014 375.916 155.596 375.228Q155.178 374.54 154.831 373.815Q154.484 373.089 154.211 372.332Q154.046 371.875 153.906 371.41Q153.765 370.945 153.648 370.473Q153.531 370.002 153.439 369.525Q153.347 369.048 153.279 368.567Q153.211 368.086 153.168 367.602Q153.126 367.118 153.108 366.633Q153.09 366.147 153.097 365.661Q153.104 365.176 153.136 364.691Q153.168 364.206 153.225 363.724Q153.282 363.241 153.364 362.762Q153.445 362.284 153.552 361.81Q153.658 361.335 153.788 360.867Q153.919 360.4 154.073 359.939Q154.227 359.478 154.405 359.026Q154.583 358.574 154.784 358.132Q154.985 357.689 155.208 357.258C157.998 351.905 162.332 349.421 167.822 347.565Z"/>
	<path fill="#102130" transform="scale(1.01668 1.01668)" d="M276.893 348.114C280.277 347.903 283.239 347.893 286.464 349.17Q286.868 349.331 287.262 349.512Q287.657 349.693 288.042 349.894Q288.427 350.096 288.801 350.317Q289.174 350.538 289.536 350.777Q289.898 351.017 290.248 351.276Q290.597 351.534 290.932 351.81Q291.267 352.086 291.588 352.379Q291.909 352.672 292.214 352.981Q292.519 353.29 292.807 353.615Q293.096 353.939 293.367 354.278Q293.639 354.617 293.893 354.97Q294.146 355.322 294.382 355.687Q294.617 356.053 294.833 356.429Q295.049 356.806 295.245 357.194Q295.441 357.581 295.617 357.978Q295.793 358.375 295.948 358.781Q296.278 359.615 296.523 360.479Q296.768 361.342 296.925 362.225Q297.082 363.109 297.15 364.003Q297.217 364.898 297.195 365.795Q297.173 366.692 297.061 367.582Q296.949 368.473 296.749 369.347Q296.548 370.222 296.261 371.072Q295.974 371.922 295.603 372.739C293.012 378.398 288.5 381.241 282.883 383.272C279.002 383.833 274.983 383.425 271.461 381.636Q271.058 381.428 270.666 381.2Q270.274 380.972 269.894 380.724Q269.515 380.476 269.148 380.209Q268.782 379.942 268.43 379.656Q268.077 379.371 267.74 379.067Q267.403 378.764 267.082 378.444Q266.761 378.124 266.457 377.788Q266.152 377.451 265.866 377.1Q265.579 376.749 265.311 376.383Q265.043 376.017 264.794 375.638Q264.544 375.259 264.315 374.868Q264.086 374.477 263.877 374.074Q263.668 373.672 263.48 373.259Q263.292 372.847 263.125 372.425Q262.959 372.003 262.814 371.573Q262.669 371.144 262.547 370.707Q262.31 369.854 262.157 368.982Q262.004 368.109 261.938 367.226Q261.871 366.343 261.892 365.458Q261.912 364.573 262.019 363.693Q262.126 362.814 262.318 361.95Q262.511 361.086 262.787 360.244Q263.063 359.403 263.421 358.593Q263.778 357.782 264.213 357.011C267.066 351.955 271.495 349.588 276.893 348.114Z"/>
	<path fill="#79F0BB" transform="scale(1.01668 1.01668)" d="M222.067 631.921C224.02 632.116 226.774 632.928 228.623 632.216C229.198 626.808 228.835 621.044 228.836 615.592L228.839 585.972C228.841 581.056 228.278 575.508 229.329 570.716L229.427 632.726C236.872 634.365 243.213 637.551 247.338 644.272C249.449 647.711 250.576 651.42 251.523 655.308C267.734 654.641 284.069 654.975 300.294 655.057C302.525 647.051 306.255 640.339 313.858 636.171Q314.428 635.859 315.012 635.576Q315.596 635.292 316.194 635.038Q316.791 634.784 317.4 634.559Q318.01 634.335 318.629 634.141Q319.249 633.946 319.877 633.783Q320.506 633.619 321.142 633.487Q321.777 633.355 322.419 633.254Q323.06 633.153 323.706 633.084Q324.352 633.015 325 632.978Q325.648 632.94 326.297 632.935Q326.947 632.93 327.596 632.956Q328.244 632.983 328.891 633.042Q329.538 633.1 330.181 633.191Q330.824 633.281 331.462 633.403Q332.099 633.525 332.73 633.679Q333.361 633.832 333.984 634.016C340.687 636.06 346.253 640.923 349.504 647.093Q349.823 647.688 350.111 648.298Q350.399 648.908 350.655 649.532Q350.911 650.156 351.135 650.792Q351.359 651.429 351.55 652.076Q351.741 652.723 351.899 653.379Q352.056 654.035 352.18 654.698Q352.304 655.361 352.394 656.03Q352.483 656.698 352.539 657.371Q352.594 658.043 352.615 658.717Q352.635 659.392 352.622 660.066Q352.608 660.741 352.56 661.414Q352.511 662.086 352.428 662.756Q352.346 663.425 352.229 664.09Q352.112 664.754 351.961 665.412Q351.81 666.069 351.626 666.718Q351.441 667.367 351.224 668.006C348.995 674.776 344.16 680.077 337.802 683.198C331.344 686.37 322.869 686.397 316.186 683.885C309.553 681.392 304.832 676.352 302.085 669.908Q300.606 666.361 299.871 662.589L251.47 662.716C249.602 670.578 245.873 677.511 238.771 681.884C232.545 685.719 224.61 686.566 217.572 684.751Q216.949 684.592 216.335 684.402Q215.72 684.212 215.116 683.991Q214.513 683.77 213.921 683.519Q213.329 683.267 212.751 682.986Q212.172 682.705 211.609 682.394Q211.046 682.084 210.499 681.745Q209.953 681.407 209.424 681.041Q208.895 680.675 208.385 680.283Q207.876 679.89 207.387 679.473Q206.898 679.055 206.431 678.613Q205.964 678.171 205.52 677.706Q205.076 677.24 204.657 676.753Q204.237 676.266 203.843 675.758Q203.448 675.25 203.08 674.723Q202.712 674.196 202.371 673.65Q202.031 673.105 201.718 672.543C198.105 665.999 197.353 657.394 199.686 650.295C201.986 643.298 207.128 638.124 213.672 635.008C216.387 633.715 219.201 632.813 222.067 631.921Z"/>
	<path fill="#102130" transform="scale(1.01668 1.01668)" d="M323.418 642.036C327.207 641.614 331.328 642.17 334.758 643.886C338.746 645.882 341.528 649.336 342.901 653.555Q343.044 653.983 343.166 654.417Q343.287 654.851 343.387 655.291Q343.486 655.731 343.563 656.175Q343.64 656.62 343.695 657.067Q343.749 657.515 343.781 657.965Q343.813 658.415 343.822 658.866Q343.831 659.316 343.817 659.767Q343.803 660.218 343.766 660.668Q343.73 661.117 343.67 661.564Q343.611 662.011 343.529 662.455Q343.447 662.898 343.343 663.337Q343.239 663.776 343.113 664.209Q342.986 664.642 342.838 665.068Q342.69 665.494 342.521 665.912Q342.351 666.33 342.161 666.738Q341.971 667.147 341.76 667.546C339.266 672.277 335.444 674.852 330.467 676.446C326.481 677.118 322.798 676.994 319.061 675.311C314.658 673.327 311.365 669.445 309.862 664.884C308.364 660.341 308.651 655.395 310.95 651.17C313.692 646.133 318.122 643.629 323.418 642.036Z"/>
	<path fill="#102130" transform="scale(1.01668 1.01668)" d="M221.329 641.544C225.533 641.15 229.505 641.543 233.323 643.469Q234.102 643.853 234.839 644.314Q235.575 644.776 236.26 645.31Q236.946 645.844 237.573 646.444Q238.201 647.045 238.764 647.707Q239.327 648.368 239.82 649.084Q240.313 649.799 240.73 650.561Q241.148 651.323 241.486 652.124Q241.823 652.924 242.078 653.755C243.465 658.271 243.108 663.482 240.837 667.655C238.227 672.451 233.96 674.955 228.89 676.453C224.645 677.009 220.67 676.729 216.778 674.812C212.517 672.713 209.084 668.866 207.657 664.318C206.257 659.853 206.913 654.807 209.15 650.728C211.853 645.795 216.124 643.186 221.329 641.544Z"/>
	<path fill="#79F0BB" transform="scale(1.01668 1.01668)" d="M277.287 572.179C282.844 572.009 288.074 572.984 292.869 575.955C300.473 580.667 303.386 587.469 305.313 595.777C321.24 595.872 337.48 596.505 353.376 595.478C353.937 593.215 354.61 591.001 355.523 588.854Q355.79 588.232 356.087 587.625Q356.384 587.017 356.711 586.424Q357.038 585.832 357.394 585.257Q357.749 584.681 358.133 584.124Q358.517 583.567 358.928 583.03Q359.339 582.493 359.777 581.976Q360.214 581.46 360.676 580.966Q361.138 580.472 361.624 580.002Q362.111 579.531 362.619 579.086Q363.128 578.64 363.659 578.22Q364.189 577.8 364.739 577.406Q365.29 577.013 365.859 576.648Q366.429 576.282 367.015 575.946Q367.602 575.609 368.205 575.302Q368.807 574.994 369.425 574.717Q370.042 574.44 370.672 574.194C377.047 571.744 384.185 572.131 390.408 574.847Q391.022 575.111 391.621 575.404Q392.221 575.698 392.805 576.021Q393.39 576.344 393.957 576.696Q394.525 577.048 395.075 577.427Q395.624 577.807 396.154 578.213Q396.684 578.619 397.193 579.051Q397.703 579.483 398.19 579.94Q398.677 580.397 399.141 580.877Q399.605 581.357 400.044 581.86Q400.484 582.363 400.898 582.887Q401.312 583.411 401.699 583.955Q402.087 584.499 402.447 585.061Q402.807 585.623 403.138 586.203Q403.47 586.783 403.772 587.378Q404.075 587.973 404.347 588.583Q404.62 589.193 404.862 589.815Q405.097 590.451 405.299 591.099Q405.501 591.746 405.67 592.403Q405.839 593.06 405.974 593.724Q406.11 594.389 406.211 595.059Q406.313 595.73 406.381 596.405Q406.448 597.079 406.481 597.757Q406.515 598.434 406.514 599.112Q406.512 599.791 406.477 600.468Q406.441 601.145 406.372 601.82Q406.302 602.494 406.198 603.165Q406.094 603.835 405.957 604.499Q405.819 605.163 405.648 605.819Q405.477 606.476 405.273 607.122Q405.068 607.769 404.832 608.405Q404.595 609.04 404.326 609.663Q404.058 610.286 403.758 610.894C400.021 618.445 393.497 622.592 385.747 625.07C379.378 626.247 372.801 625.494 367.097 622.304C360.171 618.43 356.407 612.237 354.199 604.853L305.044 604.59Q304.727 605.886 304.289 607.146Q303.851 608.406 303.295 609.619Q302.74 610.832 302.072 611.986Q301.404 613.141 300.629 614.227C296.452 620.064 290.264 623.597 283.243 624.719C276.079 625.863 268.501 624.154 262.72 619.717C257.225 615.499 253.625 608.867 252.791 602.018Q252.711 601.365 252.664 600.71Q252.616 600.054 252.6 599.397Q252.585 598.74 252.601 598.083Q252.618 597.426 252.666 596.77Q252.714 596.115 252.795 595.463Q252.875 594.81 252.987 594.162Q253.099 593.515 253.242 592.873Q253.386 592.232 253.561 591.598Q253.735 590.964 253.94 590.34Q254.146 589.716 254.381 589.102Q254.616 588.488 254.881 587.887Q255.147 587.285 255.441 586.697Q255.735 586.109 256.057 585.537Q256.379 584.964 256.729 584.407Q257.079 583.851 257.456 583.312Q257.833 582.774 258.235 582.254C263.047 576.129 269.695 572.987 277.287 572.179Z"/>
	<path fill="#102130" transform="scale(1.01668 1.01668)" d="M376.859 581.572C380.405 581.345 383.336 581.374 386.666 582.764Q387.081 582.936 387.487 583.129Q387.893 583.322 388.288 583.536Q388.683 583.749 389.067 583.983Q389.451 584.216 389.823 584.469Q390.194 584.721 390.553 584.992Q390.911 585.264 391.255 585.553Q391.599 585.842 391.928 586.148Q392.256 586.454 392.569 586.777Q392.882 587.1 393.178 587.438Q393.474 587.776 393.752 588.129Q394.03 588.482 394.29 588.848Q394.55 589.215 394.791 589.594Q395.032 589.973 395.254 590.364Q395.475 590.755 395.676 591.157Q395.877 591.559 396.057 591.97Q396.238 592.382 396.397 592.802Q396.557 593.214 396.695 593.633Q396.834 594.052 396.95 594.477Q397.067 594.903 397.162 595.334Q397.257 595.765 397.33 596.2Q397.403 596.635 397.454 597.074Q397.504 597.512 397.533 597.953Q397.561 598.393 397.567 598.834Q397.572 599.276 397.555 599.717Q397.539 600.158 397.499 600.597Q397.46 601.037 397.398 601.474Q397.337 601.911 397.253 602.344Q397.169 602.777 397.063 603.206Q396.957 603.634 396.83 604.057Q396.702 604.479 396.553 604.895Q396.404 605.31 396.234 605.718Q396.065 606.125 395.874 606.523C393.295 611.822 388.962 614.286 383.611 616.062C379.701 616.829 375.614 616.659 371.963 614.949Q371.227 614.6 370.529 614.179Q369.831 613.759 369.179 613.271Q368.526 612.783 367.925 612.233Q367.324 611.682 366.781 611.075Q366.238 610.468 365.758 609.809Q365.278 609.151 364.866 608.448Q364.454 607.745 364.114 607.005Q363.774 606.265 363.509 605.494C361.806 600.679 362.373 595.243 364.733 590.744C367.407 585.648 371.528 583.157 376.859 581.572Z"/>
	<path fill="#102130" transform="scale(1.01668 1.01668)" d="M278.337 581.171C282.097 581.248 285.491 581.96 288.722 583.991C292.761 586.531 295.53 590.8 296.436 595.462C297.359 600.219 296.296 604.893 293.444 608.809C289.919 613.65 285.297 615.484 279.621 616.446C275.769 616.354 272.082 615.47 268.848 613.312Q268.479 613.065 268.122 612.799Q267.766 612.533 267.424 612.249Q267.082 611.965 266.756 611.663Q266.429 611.362 266.118 611.044Q265.807 610.726 265.514 610.393Q265.22 610.059 264.943 609.711Q264.667 609.363 264.409 609.001Q264.152 608.639 263.913 608.264Q263.674 607.889 263.455 607.502Q263.236 607.115 263.038 606.717Q262.839 606.32 262.661 605.912Q262.483 605.505 262.327 605.089Q262.17 604.673 262.035 604.249Q261.901 603.826 261.788 603.396Q261.675 602.966 261.585 602.531Q261.495 602.095 261.427 601.656Q261.355 601.219 261.306 600.778Q261.256 600.338 261.23 599.895Q261.203 599.453 261.199 599.009Q261.195 598.566 261.214 598.123Q261.233 597.68 261.274 597.239Q261.316 596.797 261.38 596.359Q261.444 595.92 261.531 595.485Q261.617 595.05 261.726 594.621Q261.835 594.191 261.966 593.767Q262.097 593.344 262.249 592.927Q262.401 592.511 262.575 592.103Q262.749 591.695 262.943 591.297Q263.137 590.898 263.352 590.51Q263.566 590.122 263.8 589.746Q264.034 589.369 264.287 589.005Q264.541 588.641 264.812 588.291C268.264 583.863 272.946 581.942 278.337 581.171Z"/>
	<path fill="#FEFEFE" transform="scale(1.01668 1.01668)" d="M748.796 411.353C757.842 411.215 766.903 411.397 775.949 411.467L795.961 448.375C800.902 457.662 805.55 467.129 810.725 476.287C816.53 467.087 820.891 456.902 825.863 447.231C832.004 435.289 838.694 423.581 844.535 411.494C853.83 411.399 863.136 411.507 872.432 411.522C864.762 428.119 855.575 444.476 846.75 460.497C842.584 468.147 825.304 497.388 823.978 503.455C822.715 509.236 823.563 516.513 823.626 522.454Q823.763 536.234 823.677 550.014L797.993 549.987C798.052 534.537 797.663 518.936 798.363 503.509C788.221 483.947 777.39 464.638 766.791 445.317C760.629 434.085 754.277 422.939 748.796 411.353Z"/>
	<path fill="#FEFEFE" transform="scale(1.01668 1.01668)" d="M284.99 413.24C293.421 412.838 301.962 413.088 310.406 413.103Q329.972 413.07 349.537 413.307C343.405 421.265 337.281 429.281 330.645 436.828C323.059 436.755 315.471 436.876 307.885 436.774C303.451 436.714 298.368 436.1 294.009 436.798C292.407 437.055 290.887 437.664 289.724 438.824C285.304 443.229 287.033 464.064 287.072 470.751C302.866 471.043 318.696 470.903 334.494 470.96L334.504 493.567L287.06 493.554L287.06 519.581C287.686 520.874 288.317 522.123 289.364 523.132C290.422 524.15 291.605 524.477 293.015 524.692C299.095 525.619 305.822 525.053 311.972 525.043Q329.285 524.95 346.597 525.097C341.008 533.798 333.979 541.417 327.158 549.148C317.838 548.802 308.468 549.06 299.143 549.114C293.767 549.145 288.006 549.627 282.734 548.488C279.523 547.794 276.857 546.502 274.231 544.555C269.302 540.901 264.555 535.197 263.77 528.958C263.057 523.284 263.429 517.382 263.476 511.669L263.672 483.561L263.395 453.22C263.324 446.732 262.94 440.037 263.824 433.598C264.436 429.136 265.781 425.687 268.664 422.162Q269.038 421.697 269.434 421.251Q269.831 420.804 270.248 420.378Q270.666 419.952 271.104 419.547Q271.543 419.142 272 418.759Q272.458 418.376 272.934 418.016Q273.41 417.655 273.903 417.319Q274.396 416.983 274.905 416.671Q275.414 416.36 275.938 416.074Q276.461 415.787 276.998 415.527Q277.536 415.267 278.085 415.034Q278.634 414.8 279.194 414.594Q279.754 414.388 280.324 414.21Q280.893 414.032 281.471 413.882Q282.049 413.732 282.633 413.61Q283.217 413.489 283.807 413.396Q284.397 413.303 284.99 413.24Z"/>
	<path fill="#FEFEFE" transform="scale(1.01668 1.01668)" d="M376.926 413.124C399.249 412.536 421.815 412.789 444.146 413.191C438.754 421.732 431.894 428.854 425.611 436.702C417.574 437.044 409.438 436.856 401.39 436.741C397.024 436.679 392.11 436.154 387.84 436.93C385.844 437.292 384.067 438.028 382.639 439.5C377.385 444.915 379.167 462.359 379.232 469.96L428.087 469.683L428.043 492.658Q403.751 492.816 379.458 492.706Q379.282 505.665 379.42 518.625C379.645 520.264 380.391 521.723 381.592 522.871C382.676 523.906 383.783 524.312 385.24 524.498C391.7 525.321 398.892 524.622 405.436 524.59L444.394 524.616C437.952 532.7 430.531 540.038 423.957 548.035L393.476 548.119C387.76 548.129 381.62 548.608 375.99 547.634Q373.56 547.199 371.25 546.329Q368.94 545.459 366.828 544.182C362.483 541.517 358.15 535.168 357.077 530.146C355.899 524.639 356.507 518.217 356.531 512.58L356.572 486.981L356.586 454.162C356.582 447.856 356.222 441.342 356.879 435.075C357.336 430.718 358.206 427.278 360.672 423.53C364.537 417.657 370.214 414.584 376.926 413.124Z"/>
	<path fill="#FEFEFE" transform="scale(1.01668 1.01668)" d="M485.069 412.712C485.202 412.705 485.335 412.697 485.468 412.693C499.478 412.263 514.67 415.826 525.042 425.793C533.66 434.075 537.607 445.133 537.818 456.921C538.023 468.398 534.744 479.284 526.565 487.596C512.642 501.747 493.692 500.196 475.538 500.227L475.549 518.25L475.489 548.05L451.531 548L451.582 474.798C451.605 462.627 450.586 449.061 452.225 437.087C452.926 431.965 454.343 426.444 457.852 422.514C464.654 414.895 475.449 413.423 485.069 412.712Z"/>
	<path fill="#102130" transform="scale(1.01668 1.01668)" d="M486.467 436.109C490.477 435.913 494.409 435.782 498.3 436.998Q498.771 437.143 499.233 437.311Q499.696 437.479 500.149 437.671Q500.603 437.863 501.045 438.078Q501.488 438.293 501.92 438.531Q502.351 438.768 502.77 439.027Q503.188 439.286 503.593 439.567Q503.998 439.847 504.388 440.148Q504.777 440.448 505.151 440.768Q505.525 441.089 505.882 441.428Q506.239 441.767 506.578 442.124Q506.918 442.48 507.238 442.854Q507.558 443.228 507.859 443.618Q508.16 444.008 508.441 444.412Q508.721 444.817 508.98 445.235Q509.24 445.654 509.477 446.085Q509.715 446.516 509.93 446.959C512.574 452.328 513.137 459.559 511.076 465.224C509.186 470.421 505.444 473.482 500.547 475.712C492.446 478.356 483.806 477.654 475.381 477.626C475.421 468.829 473.492 448.069 477.951 441.181C480.09 437.877 482.738 436.85 486.467 436.109Z"/>
	<defs>
		<linearGradient id="gradient_0" gradientUnits="userSpaceOnUse" x1="130.29305" y1="524.22009" x2="280.89301" y2="393.93567">
			<stop offset="0" stop-color="#92FAE4"/>
			<stop offset="1" stop-color="#7FE8EA"/>
		</linearGradient>
	</defs>
	<path fill="url(#gradient_0)" transform="scale(1.01668 1.01668)" d="M241.491 394.205C241.669 394.121 241.849 394.041 242.026 393.953C245.072 392.43 256.422 382.537 257.055 379.235C257.258 378.176 256.818 377.413 256.55 376.427C256.475 376.15 256.434 375.865 256.376 375.584L256.961 375.422C258.644 374.939 259.55 374.56 260.897 373.477C261.028 373.371 261.171 373.28 261.309 373.181C264.463 376.609 267.144 380.525 271.212 382.925L271.182 383.637C271.033 383.717 270.881 383.794 270.733 383.878C268.906 384.907 268.038 386.016 266.904 387.747L266.438 387.062C266.131 387.026 265.823 386.996 265.516 386.955C264.262 386.783 263.591 386.287 262.573 385.609C261.618 384.973 261.279 384.51 260.067 384.679C256.837 387.316 247.073 395.681 246.019 399.304C243.178 402.347 239.684 405.121 236.608 407.963Q228.507 415.504 220.55 423.197C224.598 425.724 228.337 428.537 231.719 431.913C244.655 444.83 251.017 463.089 250.951 481.182C250.886 498.979 245.189 516.504 232.366 529.198C208.016 553.303 180.235 548.874 149.207 548.658C148.327 503.948 149.727 459.122 149.276 414.395C169.671 414.435 194.709 412.066 213.787 419.328C223.182 411.143 232.149 402.456 241.491 394.205Z"/>
	<path fill="#102130" transform="scale(1.01668 1.01668)" d="M172.416 436.723C188.057 436.68 202.44 435.978 214.806 447.281C223.832 455.531 228.088 467.489 228.468 479.511C228.873 492.338 224.254 503.572 215.55 512.834C201.758 525.791 190.28 525.699 172.271 525.441L172.416 436.723Z"/>
	<path fill="#FEFEFE" transform="scale(1.01668 1.01668)" d="M685.525 410.708C702.385 408.82 721.534 415.496 734.79 425.71C749.477 437.025 758.731 454.713 760.937 472.999C762.903 489.298 758.099 507.947 747.872 520.884C735.34 536.737 717.604 547.173 697.498 549.465Q696.742 549.579 695.982 549.67C678.798 551.796 659.592 545.581 646.157 534.895C631.54 523.268 623.026 506.758 621.016 488.287C619.011 469.857 623.967 449.362 635.76 434.852C648.021 419.767 666.635 412.554 685.525 410.708Z"/>
	<path fill="#102130" transform="scale(1.01668 1.01668)" d="M686.456 434.196C686.589 434.177 686.722 434.154 686.856 434.14C697.877 432.971 709.7 437.116 718.26 443.954C727.567 451.39 734.175 462.698 735.348 474.631C736.543 486.782 733.371 499.586 725.536 509.081C716.968 519.463 706.138 524.905 692.847 526.19C681.349 526.532 671.418 523.975 662.221 516.876Q661.301 516.176 660.417 515.43Q659.532 514.684 658.687 513.895Q657.841 513.106 657.036 512.276Q656.231 511.446 655.468 510.576Q654.705 509.707 653.987 508.8Q653.269 507.893 652.597 506.952Q651.926 506.01 651.302 505.036Q650.678 504.063 650.104 503.059Q649.529 502.055 649.006 501.023Q648.482 499.992 648.011 498.936Q647.54 497.879 647.122 496.801Q646.705 495.722 646.342 494.624Q645.979 493.526 645.671 492.411Q645.363 491.296 645.111 490.167Q644.86 489.039 644.665 487.898Q644.47 486.758 644.333 485.61C642.903 473.442 646.03 461.333 653.728 451.705C662.013 441.344 673.421 435.621 686.456 434.196Z"/>
</svg>
